<?xml version="1.0" encoding="utf-8"?>
<!-- Generator: Adobe Illustrator 16.0.0, SVG Export Plug-In . SVG Version: 6.00 Build 0)  -->
<!DOCTYPE svg PUBLIC "-//W3C//DTD SVG 1.1//EN" "http://www.w3.org/Graphics/SVG/1.1/DTD/svg11.dtd">
<svg version="1.1" xmlns="http://www.w3.org/2000/svg" xmlns:xlink="http://www.w3.org/1999/xlink" x="0px" y="0px" width="93px"
	 height="44px" viewBox="-107.819 7.173 93 44" enable-background="new -107.819 7.173 93 44" xml:space="preserve">
<g id="svg2385" xmlns:svg="http://www.w3.org/2000/svg">
	<g id="layer1_1_">
		<g id="g2584" transform="matrix(6.2918274,0,0,6.2918274,-1685.5171,-1336.8611)">
			<path id="path959" fill="#D6D2E7" d="M252.368,218.958c0.204,0.225,0.444,0.413,0.721,0.562c0.423,0.228,0.894,0.345,1.414,0.349
				c0.386-0.004,0.762-0.093,1.128-0.266c0.342-0.162,0.633-0.377,0.871-0.646l-0.329,0c-0.003,0.003-0.007,0.005-0.01,0.007
				c-0.255,0.174-0.522,0.306-0.801,0.397c-0.279,0.091-0.575,0.137-0.887,0.137c-0.399-0.005-0.752-0.103-1.059-0.294
				c-0.117-0.073-0.225-0.156-0.323-0.248H252.368z M257.77,218.958c0.017,0.018,0.036,0.035,0.057,0.052
				c0.13,0.102,0.285,0.154,0.467,0.155c0.182-0.001,0.337-0.053,0.465-0.155c0.02-0.016,0.039-0.033,0.056-0.052H257.77z
				 M263.834,218.958c0.016,0.019,0.034,0.037,0.053,0.054c0.118,0.101,0.269,0.152,0.455,0.153c0.129,0,0.246-0.032,0.352-0.095
				c0.049-0.03,0.091-0.067,0.125-0.111H263.834 M251.723,217.591c0.053,0.36,0.171,0.687,0.354,0.98
				c0.087,0.139,0.184,0.268,0.291,0.386h0.726c-0.158-0.148-0.291-0.321-0.398-0.519c-0.141-0.259-0.226-0.541-0.255-0.848H251.723
				z M253.519,217.591l-0.142,0.323c-0.024,0.054-0.048,0.109-0.071,0.167c-0.023,0.057-0.035,0.117-0.037,0.18
				c0.002,0.081,0.028,0.146,0.08,0.196c0.051,0.05,0.118,0.075,0.199,0.077c0.107-0.005,0.192-0.045,0.255-0.121
				c0.063-0.076,0.113-0.159,0.148-0.249l0.251-0.573H253.519z M254.769,217.591l-0.146,0.329c-0.027,0.054-0.051,0.109-0.073,0.166
				s-0.034,0.115-0.035,0.175c0.001,0.081,0.027,0.146,0.077,0.196c0.05,0.05,0.115,0.075,0.196,0.077
				c0.107-0.005,0.192-0.044,0.256-0.118c0.064-0.074,0.115-0.156,0.154-0.246l0.259-0.579H254.769z M256.255,217.591
				c-0.054,0.104-0.117,0.2-0.189,0.289l0.199,0.171c0.141-0.133,0.262-0.286,0.364-0.459H256.255z M260.773,219.13h0.392v-1.791
				h-0.392V219.13z M261.513,217.591c0.01,0.039,0.029,0.074,0.059,0.103c0.042,0.042,0.094,0.064,0.156,0.066
				c0.061-0.002,0.113-0.024,0.156-0.066c0.03-0.03,0.049-0.064,0.059-0.103H261.513z M256.502,218.958
				c0.016-0.018,0.032-0.036,0.047-0.055l-0.114-0.171c-0.082,0.083-0.17,0.158-0.263,0.226L256.502,218.958z M258.815,218.958
				c0.091-0.098,0.14-0.226,0.144-0.385c-0.006-0.189-0.072-0.334-0.2-0.436c-0.128-0.102-0.283-0.154-0.465-0.155
				c-0.182,0.001-0.338,0.052-0.467,0.153c-0.13,0.101-0.197,0.247-0.203,0.438c0.005,0.159,0.054,0.287,0.147,0.385H258.815z
				 M259.625,219.13l0-0.574c-0.001-0.07,0.013-0.13,0.043-0.179c0.03-0.049,0.084-0.075,0.162-0.077
				c0.077,0.002,0.128,0.027,0.151,0.076c0.023,0.048,0.034,0.106,0.031,0.174v0.58h0.392v-0.688
				c0.001-0.141-0.033-0.251-0.102-0.332c-0.068-0.08-0.175-0.121-0.319-0.123c-0.077-0.001-0.144,0.012-0.202,0.039
				c-0.058,0.027-0.108,0.073-0.151,0.137h-0.006v-0.142h-0.392v1.108H259.625z M261.534,219.13h0.386v-1.108h-0.387L261.534,219.13
				z M262.66,219.13v-0.574c-0.001-0.07,0.013-0.13,0.043-0.179c0.03-0.049,0.084-0.075,0.162-0.077
				c0.072,0.002,0.12,0.025,0.143,0.07c0.024,0.045,0.034,0.099,0.033,0.164v0.597h0.392l0-0.688
				c0.001-0.141-0.033-0.251-0.102-0.332c-0.068-0.08-0.175-0.121-0.319-0.123c-0.062,0.003-0.125,0.023-0.189,0.06
				c-0.064,0.038-0.119,0.076-0.163,0.116v-0.142h-0.398l0,1.108H262.66z M264.819,218.958c0.039-0.051,0.067-0.111,0.086-0.18
				h-0.375c-0.02,0.034-0.047,0.06-0.079,0.077c-0.032,0.017-0.069,0.026-0.109,0.026c-0.078,0-0.139-0.02-0.185-0.06
				c-0.045-0.04-0.067-0.099-0.065-0.179h0.824c0.001-0.202-0.047-0.361-0.143-0.479c-0.097-0.118-0.25-0.178-0.459-0.181
				c-0.182,0.002-0.328,0.055-0.438,0.159c-0.11,0.104-0.167,0.248-0.17,0.432c0.003,0.16,0.046,0.288,0.129,0.385H264.819z
				 M264.558,218.414h-0.455c0.013-0.057,0.04-0.102,0.082-0.134c0.042-0.032,0.093-0.048,0.151-0.048
				c0.053,0.001,0.101,0.019,0.143,0.053C264.522,218.319,264.548,218.362,264.558,218.414z M258.545,218.573
				c-0.001,0.075-0.024,0.135-0.07,0.181c-0.045,0.045-0.105,0.068-0.181,0.07c-0.075-0.001-0.136-0.024-0.183-0.07
				c-0.047-0.045-0.071-0.105-0.072-0.181c0.001-0.075,0.026-0.135,0.072-0.18c0.047-0.045,0.108-0.068,0.183-0.07
				c0.075,0.001,0.135,0.024,0.181,0.07C258.52,218.438,258.543,218.498,258.545,218.573 M252.44,217.591
				c-0.007-0.073-0.011-0.147-0.011-0.223c-0.003-0.446,0.061-0.857,0.191-1.234c0.13-0.377,0.343-0.681,0.639-0.911
				c0.296-0.23,0.692-0.349,1.188-0.355c0.376,0.002,0.715,0.081,1.018,0.237c0.303,0.156,0.545,0.376,0.724,0.66
				c0.179,0.284,0.271,0.62,0.275,1.007c-0.001,0.194-0.037,0.39-0.107,0.586c-0.029,0.082-0.063,0.159-0.102,0.234h0.374
				c0.038-0.065,0.073-0.133,0.106-0.204c0.119-0.26,0.181-0.522,0.184-0.786c-0.005-0.47-0.118-0.872-0.337-1.206
				c-0.219-0.334-0.512-0.591-0.88-0.769c-0.368-0.178-0.777-0.268-1.227-0.27c-0.543,0.005-1.023,0.129-1.44,0.372
				c-0.417,0.243-0.744,0.576-0.982,0.997c-0.238,0.422-0.359,0.903-0.363,1.444c0.002,0.146,0.013,0.286,0.033,0.422H252.44z
				 M254.203,217.591l0.641-1.462c0.033-0.068,0.062-0.139,0.089-0.213c0.026-0.073,0.04-0.148,0.042-0.225
				c-0.001-0.081-0.027-0.146-0.077-0.196c-0.05-0.05-0.115-0.075-0.196-0.077c-0.095,0.002-0.169,0.029-0.224,0.083
				c-0.054,0.054-0.099,0.123-0.134,0.207l-0.825,1.883H254.203z M255.455,217.591l0.1-0.223c0.033-0.068,0.062-0.139,0.089-0.212
				c0.026-0.073,0.04-0.148,0.042-0.225c-0.001-0.081-0.027-0.147-0.077-0.196c-0.05-0.05-0.115-0.075-0.196-0.077
				c-0.095,0.002-0.169,0.031-0.224,0.085c-0.054,0.055-0.099,0.123-0.134,0.205l-0.286,0.644H255.455z M261.942,217.591
				c0.004-0.017,0.007-0.034,0.007-0.052c-0.002-0.061-0.024-0.112-0.066-0.153c-0.042-0.041-0.094-0.062-0.156-0.063
				c-0.061,0.002-0.113,0.023-0.156,0.063c-0.042,0.041-0.064,0.091-0.066,0.153c0,0.018,0.003,0.036,0.007,0.052H261.942z
				 M263.91,216.305c0.001-0.199-0.045-0.358-0.14-0.477c-0.095-0.119-0.245-0.18-0.451-0.183c-0.182,0.002-0.329,0.056-0.441,0.162
				c-0.112,0.106-0.169,0.251-0.173,0.435c0.004,0.191,0.066,0.336,0.185,0.436c0.119,0.099,0.272,0.149,0.458,0.15
				c0.129,0,0.244-0.031,0.346-0.094c0.102-0.063,0.171-0.159,0.205-0.286h-0.364c-0.02,0.034-0.047,0.06-0.079,0.077
				c-0.032,0.017-0.069,0.026-0.109,0.026c-0.078,0-0.139-0.021-0.185-0.062c-0.045-0.042-0.067-0.102-0.065-0.182H263.91z
				 M261.188,215.214c-0.002-0.061-0.024-0.112-0.066-0.153c-0.042-0.041-0.094-0.062-0.156-0.063
				c-0.061,0.002-0.113,0.023-0.156,0.063c-0.042,0.041-0.064,0.091-0.066,0.153c0.002,0.061,0.024,0.113,0.066,0.156
				c0.042,0.042,0.094,0.064,0.156,0.066c0.061-0.002,0.113-0.024,0.156-0.066C261.164,215.327,261.186,215.275,261.188,215.214z
				 M262.461,216.413c-0.006-0.13-0.049-0.215-0.13-0.256c-0.08-0.041-0.161-0.068-0.241-0.08c-0.08-0.012-0.124-0.041-0.13-0.085
				c0.002-0.028,0.017-0.047,0.045-0.058c0.028-0.011,0.055-0.016,0.08-0.016c0.037,0,0.074,0.004,0.109,0.013
				c0.036,0.009,0.069,0.021,0.101,0.038l0.131-0.25c-0.114-0.05-0.233-0.075-0.358-0.074c-0.125,0-0.237,0.033-0.337,0.099
				c-0.099,0.066-0.152,0.166-0.158,0.299c0.006,0.124,0.049,0.204,0.128,0.242c0.079,0.037,0.159,0.063,0.238,0.076
				c0.079,0.013,0.122,0.046,0.128,0.097c-0.002,0.031-0.015,0.052-0.04,0.063c-0.025,0.011-0.051,0.017-0.079,0.016
				c-0.055-0.001-0.11-0.012-0.165-0.033c-0.055-0.021-0.104-0.048-0.148-0.08l-0.142,0.279c0.068,0.04,0.14,0.071,0.216,0.092
				c0.076,0.021,0.153,0.032,0.233,0.033c0.133,0.001,0.252-0.032,0.355-0.099C262.401,216.663,262.455,216.557,262.461,216.413z
				 M260.773,216.8h0.392v-1.103h-0.392V216.8z M260.46,216.305c0.001-0.202-0.049-0.361-0.148-0.479
				c-0.1-0.118-0.253-0.178-0.46-0.181c-0.182,0.002-0.328,0.056-0.438,0.162c-0.11,0.106-0.167,0.251-0.17,0.435
				c0.004,0.191,0.064,0.336,0.182,0.436c0.117,0.099,0.269,0.149,0.455,0.15c0.129,0.001,0.247-0.03,0.355-0.092
				c0.107-0.062,0.178-0.158,0.214-0.289h-0.381c-0.02,0.034-0.046,0.06-0.079,0.077c-0.032,0.017-0.069,0.026-0.109,0.026
				c-0.078,0-0.139-0.021-0.185-0.062c-0.045-0.042-0.067-0.102-0.065-0.182H260.46z M258.96,216.8v-0.682
				c0-0.136-0.033-0.247-0.101-0.333c-0.068-0.086-0.172-0.13-0.314-0.133c-0.149,0.001-0.266,0.062-0.352,0.182h-0.006v-0.887
				h-0.392v1.853h0.392v-0.568c-0.001-0.068,0.014-0.129,0.045-0.183c0.031-0.053,0.084-0.082,0.16-0.085
				c0.077,0.003,0.126,0.032,0.148,0.087c0.022,0.054,0.031,0.115,0.028,0.18v0.568H258.96z M263.564,216.078h-0.455
				c0.013-0.057,0.04-0.101,0.083-0.131c0.042-0.03,0.093-0.045,0.151-0.045c0.053,0.001,0.1,0.017,0.143,0.05
				C263.527,215.984,263.553,216.026,263.564,216.078z M260.096,216.078h-0.455c0.013-0.057,0.04-0.101,0.082-0.131
				c0.042-0.03,0.093-0.045,0.151-0.045c0.053,0.001,0.1,0.017,0.143,0.05C260.06,215.984,260.086,216.026,260.096,216.078"/>
		</g>
	</g>
</g>
<g id="Ebene_2">
</g>
</svg>
