<?xml version="1.0" encoding="utf-8"?>
<!-- Generator: Adobe Illustrator 16.0.0, SVG Export Plug-In . SVG Version: 6.00 Build 0)  -->
<!DOCTYPE svg PUBLIC "-//W3C//DTD SVG 1.1//EN" "http://www.w3.org/Graphics/SVG/1.1/DTD/svg11.dtd">
<svg version="1.1" xmlns="http://www.w3.org/2000/svg" xmlns:xlink="http://www.w3.org/1999/xlink" x="0px" y="0px"
	 width="182.388px" height="44px" viewBox="17.716 57.423 182.388 44" enable-background="new 17.716 57.423 182.388 44"
	 xml:space="preserve">
<g id="svg2385" xmlns:svg="http://www.w3.org/2000/svg">
	<g id="layer1" transform="translate(-499.375, -640.625)">
		<g id="g2413" transform="matrix(0.941176, 0, 0, 0.941176, 47.0915, 62.6671)">
			<rect id="rect2411" x="499.375" y="671.905" fill="#D6D2E7" width="193.787" height="51"/>
			<path id="path3" fill="#FFFFFF" d="M512.251,683.079c-0.153,0.012-0.496,0.216-0.619,0.259c-0.225,0.211,0.15,0.614,0.404,0.432
				l0.202-0.432C512.363,683.127,512.343,683.07,512.251,683.079z M511.141,683.943c-0.478,0-1.149,0.352-1.556,1.109
				c-0.085,0.269,0.001,0.268,0.043,0.591c0.085,0.28,0.171,0.631,0.087,0.994c0.084,0.394,0.542,0.389,0.893,0.389
				c0.253,0,0.929-1.096,1.167-1.096c0.183-0.14,0.258-0.877,0.187-1.31C511.963,684.297,511.493,683.943,511.141,683.943z
				 M509.167,684.102c-0.048,0.012-0.11,0.032-0.201,0.072c-0.267,0.055-0.392,0.119-0.49,0.303
				c-0.126,0.211-0.007,0.457,0.288,0.316c0.197-0.098,0.275-0.318,0.332-0.446C509.275,684.136,509.31,684.065,509.167,684.102z
				 M514.369,684.692c-0.039,0.018-0.081,0.059-0.144,0.101c-0.085,0.055-0.348,0.26-0.404,0.318
				c-0.084,0.28,0.251,0.542,0.461,0.287c0.071-0.068,0.13-0.349,0.13-0.417C514.507,684.706,514.486,684.638,514.369,684.692z
				 M507.654,685.11c-0.197,0-1,0.354-1.21,0.678c-0.268,0.477-0.19,1.647,0.288,1.844c0.324,0.14,1.014-0.001,1.21-0.13
				c0.338-0.126,0.953-0.82,1.024-1.369c0.071-0.352-0.147-0.668-0.274-0.893c0,0-0.003,0-0.13,0
				C508.21,685.24,508.02,685.236,507.654,685.11z M513.245,685.73c-0.254,0-0.602,0.129-1.081,0.663
				c-0.268,0.295-0.391,0.757-0.476,1.109c-0.056,1.044,0.883,1.227,1.629,0.822c0.351-0.226,0.681-0.687,0.821-1.023
				c0.141-0.269,0.143-1.028,0.087-1.297c0-0.068-0.089-0.073-0.159-0.073C513.869,685.931,513.611,685.859,513.245,685.73z
				 M530.48,687.43c-1.234,0-1.715,0.451-1.715,1.816v0.547c0,1.33,0.481,1.816,1.715,1.816h0.879c1.233,0,1.715-0.486,1.715-1.816
				v-0.547c0-1.364-0.482-1.816-1.715-1.816H530.48z M634.289,687.43c-1.233,0-1.715,0.451-1.715,1.816v0.547
				c0,1.33,0.481,1.816,1.715,1.816h0.879c1.232,0,1.714-0.486,1.714-1.816v-0.547c0-1.364-0.482-1.816-1.714-1.816H634.289z
				 M524.874,687.46l-4.669,0.388c-0.325,0.032-0.49,0.256-0.49,0.548v1.167c0,0.26,0.122,0.496,0.447,0.562l1.629,0.346v3.343
				c-0.552-0.486-1.4-0.879-2.536-0.879c-2.854,0-4.769,2.639-4.769,8.833c0,6.522,1.425,8.689,4.02,8.689
				c1.557,0,2.73-0.618,3.833-2.694l0.231,2.017c0.032,0.355,0.287,0.521,0.678,0.49l3.89-0.359c0.325-0.033,0.49-0.272,0.49-0.562
				v-1.168c0-0.259-0.122-0.484-0.447-0.548l-1.629-0.359v-19.267C525.551,687.583,525.263,687.427,524.874,687.46z M509.974,687.56
				c-0.351,0.012-0.879,0.216-0.879,0.216s-0.806,0.154-1.341,0.548c0,0-0.905,0.062-1.383,0.274
				c-0.619,0.126-1.297,1.079-1.297,1.686c0,0.42,0.416,0.969,0.879,1.109c0.295,0.129,0.423,0,0.633,0c0,0,0.001-0.015,0,0.044
				c0.14,0.14,0.524,0.854,0.735,1.037c0.281,0.212,0.967,0.332,1.023,0.332c0,0,0.002,0,0.072,0c0,0.14,0.272,0.776,0.807,1.167
				c0.563,0.409,1.507-0.123,1.844-0.462c0.422-0.632,0.563-0.963,0.619-1.44c-0.197-0.678-0.553-1.184-0.202-2.407
				c0.141-0.732-0.352-0.94-0.634-1.066c-0.197-0.155-0.186-0.912-0.735-1.038C510.078,687.553,510.024,687.558,509.974,687.56z
				 M514.672,688.035c-0.038,0.007-0.091,0.059-0.144,0.159c-0.127,0.197-0.248,0.246-0.389,0.346
				c-0.267,0.252,0.078,0.602,0.332,0.404c0.197-0.212,0.302-0.394,0.302-0.707C514.772,688.123,514.735,688.024,514.672,688.035z
				 M555.87,688.338c-0.056,0.002-0.122,0.011-0.187,0.028l-1.556,0.361c-0.357,0.062-0.551,0.295-0.648,0.749l-0.807,3.66h-1.354
				c-0.325,0-0.562,0.191-0.562,0.548v1.686c0,0.357,0.238,0.562,0.562,0.562h1.354v10.375c0,3.015,1.267,4.148,3.214,4.148
				c1.394,0,2.56-0.484,3.372-1.295c0.13-0.131,0.392-0.386,0.49-0.548c0.162-0.261,0.166-0.519-0.029-0.778l-0.62-0.88
				c-0.194-0.295-0.518-0.324-0.778-0.129c-0.649,0.486-1.074,0.647-1.398,0.647c-0.324,0-0.49-0.168-0.49-1.37v-10.172h2.767
				c0.325,0,0.547-0.205,0.547-0.562v-1.686c0-0.357-0.223-0.548-0.547-0.548h-2.767v-4.222
				C556.432,688.629,556.261,688.323,555.87,688.338z M643.454,688.338c-0.056,0.002-0.123,0.011-0.188,0.028l-1.556,0.361
				c-0.357,0.062-0.552,0.295-0.649,0.749l-0.807,3.66H638.9c-0.324,0-0.562,0.191-0.562,0.548v1.686
				c0,0.357,0.238,0.562,0.562,0.562h1.355v10.375c0,3.015,1.267,4.148,3.214,4.148c1.396,0,2.562-0.484,3.372-1.295
				c0.13-0.131,0.393-0.386,0.49-0.548c0.163-0.261,0.165-0.519-0.029-0.778l-0.619-0.88c-0.195-0.295-0.519-0.324-0.779-0.129
				c-0.648,0.486-1.074,0.647-1.398,0.647c-0.325,0-0.49-0.168-0.49-1.37v-10.172h2.508c0.324,0,0.547-0.205,0.547-0.562v-1.686
				c0-0.357-0.223-0.548-0.547-0.548h-2.508v-4.222C644.016,688.629,643.846,688.323,643.454,688.338z M513.317,689.001
				c-0.1,0.005-0.212,0.029-0.332,0.072c-0.408,0.14-0.408,0.685-0.605,0.937c-0.295,0.365-0.475,0.559-0.475,0.98
				c0,0.311,0.332,1.08,0.922,0.951c0.548-0.127,0.554-0.422,0.85-0.634c0.268-0.184,0.465-0.532,0.605-1.023
				C514.233,689.753,514.013,688.962,513.317,689.001z M541.186,692.776c-3.471,0-5.649,2.052-5.649,8.962
				c0,7.657,2.606,8.718,5.591,8.718c1.914,0,4.149-1.129,5.317-2.752c0.259-0.357,0.256-0.591,0.029-0.849l-0.619-0.751
				c-0.162-0.193-0.281-0.259-0.476-0.259c-0.681,0-1.591,1.629-3.732,1.629c-1.687,0-2.205-1.368-2.205-4.223v-0.257l6.283-0.62
				c0.454-0.031,0.692-0.218,0.692-0.577v-1.166C546.417,694.695,544.787,692.776,541.186,692.776z M591.924,692.776
				c-3.471,0-5.649,2.052-5.649,8.962c0,7.657,2.607,8.718,5.591,8.718c1.914,0,4.151-1.129,5.317-2.752
				c0.26-0.357,0.256-0.591,0.029-0.849l-0.62-0.751c-0.163-0.193-0.296-0.259-0.49-0.259c-0.681,0-1.576,1.629-3.718,1.629
				c-1.688,0-2.204-1.368-2.204-4.223v-0.257l6.283-0.62c0.454-0.031,0.678-0.218,0.678-0.577v-1.166
				C597.14,694.695,595.524,692.776,591.924,692.776z M603.106,692.776c-3.048,0-4.885,1.888-4.885,4.841
				c0,5.318,5.922,4.857,5.922,8.07c0,1.104-0.547,1.845-1.585,1.845c-0.908,0-1.624-0.193-2.695-0.778
				c-0.452-0.257-0.742-0.127-0.937,0.23l-0.619,1.067c-0.227,0.388-0.156,0.751,0.202,0.979c1.199,0.876,2.63,1.426,4.381,1.426
				c3.245,0,5.159-1.971,5.159-5.086c0-5.452-6.009-4.839-6.009-8.083c0-0.972,0.492-1.657,1.499-1.657
				c0.714,0,1.415,0.226,2.421,0.778c0.356,0.194,0.63,0.102,0.792-0.159l0.735-1.297c0.162-0.292,0.13-0.555-0.13-0.749
				C606.092,693.262,604.663,692.776,603.106,692.776z M624.98,692.776c-3.472,0-5.649,2.052-5.649,8.962
				c0,7.657,2.591,8.718,5.577,8.718c1.912,0,4.15-1.129,5.317-2.752c0.26-0.357,0.271-0.591,0.044-0.849l-0.619-0.751
				c-0.163-0.193-0.296-0.259-0.49-0.259c-0.682,0-1.591,1.629-3.732,1.629c-1.687,0-2.205-1.368-2.205-4.223v-0.257l6.298-0.62
				c0.453-0.031,0.677-0.218,0.677-0.577v-1.166C630.197,694.695,628.581,692.776,624.98,692.776z M670.401,692.776
				c-1.558,0-2.731,0.618-3.833,2.695l-0.23-2.017c-0.032-0.358-0.288-0.507-0.677-0.475l-3.891,0.346
				c-0.324,0.031-0.489,0.271-0.489,0.561v1.167c0,0.26,0.121,0.486,0.447,0.548l1.628,0.36v13.228c0,0.49,0.292,0.909,0.907,0.909
				h1.945c0.551,0,0.908-0.388,0.908-0.909v-10.634c1.265-2.238,1.783-2.724,2.335-2.724s0.85,0.745,0.85,3.762v10.115
				c0,0.421,0.288,0.594,0.678,0.562l4.669-0.388c0.325-0.031,0.49-0.272,0.49-0.562v-1.168c0-0.257-0.123-0.481-0.447-0.546
				l-1.629-0.361v-8.07C674.061,694.794,672.931,692.776,670.401,692.776z M565.971,692.805c-2.174,0-4.157,1.212-5.389,2.868
				c-0.259,0.357-0.22,0.739,0.072,0.965l0.965,0.807c0.357,0.326,0.627,0.198,0.951-0.159c0.844-0.972,1.646-1.657,2.781-1.657
				c1.233,0,1.816,0.789,1.816,2.507v1.585h-0.735c-2.725,0-5.937,1.291-5.937,5.865c0,3.312,1.397,4.87,3.732,4.87
				c1.914,0,2.849-1.424,3.53-2.594l0.187,1.917c0.032,0.357,0.302,0.521,0.692,0.49l3.89-0.359c0.325-0.033,0.49-0.272,0.49-0.562
				v-1.168c0-0.259-0.137-0.481-0.461-0.548l-1.614-0.359v-9.367C570.943,694.696,569.345,692.805,565.971,692.805z
				 M578.047,692.935c-2.855,0-4.683,2.626-4.683,7.751c0,5.84,1.209,8.114,3.934,8.114c1.201,0,2.594-0.581,3.372-2.104v0.965
				c0,2.889-0.129,3.474-2.464,3.474h-2.666c-0.39,0-0.613,0.288-0.548,0.677l0.159,1.139c0.065,0.419,0.269,0.525,0.562,0.589
				c1.265,0.261,2.392,0.318,3.17,0.318c3.244,0,5.447-0.845,5.447-6.197v-13.977c0-0.357-0.224-0.548-0.548-0.548h-1.657
				c-0.292,0-0.479,0.155-0.576,0.447l-0.331,0.908C580.438,693.487,579.247,692.935,578.047,692.935z M681.165,692.935
				c-2.855,0-4.669,2.626-4.669,7.751c0,5.84,1.194,8.114,3.919,8.114c1.201,0,2.593-0.581,3.371-2.104v0.965
				c0,2.889-0.128,3.474-2.464,3.474h-2.651c-0.389,0-0.628,0.288-0.562,0.677l0.173,1.139c0.065,0.419,0.257,0.525,0.548,0.589
				c1.266,0.261,2.406,0.318,3.184,0.318c3.244,0,5.447-0.845,5.447-6.197v-13.977c0-0.357-0.223-0.548-0.547-0.548h-1.657
				c-0.292,0-0.493,0.155-0.591,0.447l-0.317,0.908C683.57,693.487,682.366,692.935,681.165,692.935z M532.209,692.979l-4.683,0.389
				c-0.325,0.031-0.476,0.255-0.476,0.547v1.167c0,0.257,0.122,0.484,0.447,0.548l1.629,0.36v13.718
				c0,0.421,0.288,0.594,0.677,0.562l4.669-0.388c0.324-0.035,0.49-0.272,0.49-0.562v-1.168c0-0.257-0.136-0.481-0.461-0.546
				l-1.614-0.361v-13.719C532.886,693.103,532.598,692.946,532.209,692.979z M636.004,692.979l-4.669,0.389
				c-0.325,0.031-0.49,0.255-0.49,0.547v1.167c0,0.257,0.136,0.484,0.461,0.548l1.614,0.36v13.718c0,0.421,0.303,0.594,0.692,0.562
				l4.669-0.388c0.325-0.035,0.49-0.272,0.49-0.562v-1.168c0-0.257-0.137-0.481-0.462-0.546l-1.628-0.361v-13.719
				C636.681,693.103,636.393,692.946,636.004,692.979z M652.158,692.979l-4.122,0.389c-0.324,0.033-0.476,0.255-0.476,0.547v1.297
				c0,0.26,0.121,0.481,0.447,0.548l1.067,0.23v8.083c0,4.379,1.143,6.383,3.674,6.383c1.556,0,2.715-0.618,3.818-2.694l0.231,2.017
				c0.032,0.357,0.303,0.521,0.692,0.49l3.891-0.359c0.324-0.033,0.475-0.272,0.475-0.562v-1.168c0-0.259-0.122-0.481-0.447-0.548
				l-1.628-0.359v-13.748c0-0.422-0.288-0.579-0.678-0.547l-4.121,0.389c-0.324,0.033-0.49,0.255-0.49,0.547v1.297
				c0,0.26,0.137,0.481,0.462,0.548l1.066,0.23v8.689c-1.265,2.241-1.783,2.737-2.334,2.737c-0.552,0-0.836-0.76-0.836-3.775
				v-10.116C652.85,693.105,652.547,692.946,652.158,692.979z M609.476,693.136c-0.357,0-0.562,0.222-0.562,0.548v1.715
				c0,0.357,0.238,0.561,0.562,0.561h4.957l-5.217,10.318c-0.259,0.423-0.389,0.772-0.389,1.224v2.046
				c0,0.359,0.223,0.548,0.548,0.548h8.502c0.356,0,0.547-0.222,0.547-0.548v-1.714c0-0.357-0.224-0.562-0.547-0.562h-5.058
				l5.188-10.275c0.227-0.388,0.389-0.907,0.389-1.556v-1.758c0-0.357-0.224-0.548-0.547-0.548H609.476z M541.085,695.341
				c1.102,0,1.527,1.2,1.527,4.64l-3.17,0.259C539.442,696.121,540.209,695.341,541.085,695.341z M591.823,695.341
				c1.103,0,1.527,1.2,1.527,4.64l-3.17,0.259C590.18,696.121,590.947,695.341,591.823,695.341z M624.88,695.341
				c1.102,0,1.527,1.2,1.527,4.64l-3.185,0.259C623.222,696.121,624.003,695.341,624.88,695.341z M520.032,695.788
				c0.617,0,1.271,0.327,1.758,0.879v8.012c-1.265,2.239-1.783,2.725-2.335,2.725c-0.681-0.002-1.081-1.588-1.081-6.097
				C518.375,696.896,519.091,695.788,520.032,695.788z M578.825,695.788c0.617,0,1.224,0.369,1.744,1.181v6.025
				c-1.233,2.237-1.689,2.723-2.306,2.723c-0.616,0-1.038-1.488-1.038-5.086C577.225,696.833,577.884,695.788,578.825,695.788z
				 M681.943,695.788c0.616,0,1.239,0.369,1.758,1.181v6.025c-1.233,2.237-1.688,2.723-2.306,2.723
				c-0.616,0-1.038-1.488-1.038-5.086C680.358,696.833,681.002,695.788,681.943,695.788z M566.432,702.388h0.735v2.492
				c-1.135,2.11-1.718,2.523-2.075,2.523c-0.487-0.002-0.778-0.546-0.778-2.235C564.314,703.094,565.2,702.388,566.432,702.388z"/>
		</g>
	</g>
</g>
<g id="Ebene_2" display="none">
</g>
</svg>
