<?xml version="1.0" encoding="utf-8"?>
<!-- Generator: Adobe Illustrator 16.0.0, SVG Export Plug-In . SVG Version: 6.00 Build 0)  -->
<!DOCTYPE svg PUBLIC "-//W3C//DTD SVG 1.1//EN" "http://www.w3.org/Graphics/SVG/1.1/DTD/svg11.dtd">
<svg version="1.1" id="Ebene_1" xmlns="http://www.w3.org/2000/svg" xmlns:xlink="http://www.w3.org/1999/xlink" x="0px" y="0px"
	 width="182.389px" height="44px" viewBox="0 0 182.389 44" enable-background="new 0 0 182.389 44" xml:space="preserve">
<g id="svg2385" xmlns:svg="http://www.w3.org/2000/svg">
	<g id="layer1" transform="translate(-499.375, -640.625)">
		<g id="g2413" transform="matrix(0.941176, 0, 0, 0.941176, 47.0915, 62.6671)">
			<rect id="rect2411" x="480.551" y="611.956" fill="#D6D2E7" width="193.787" height="51"/>
			<path id="path3" fill="#FFFFFF" d="M493.427,623.129c-0.153,0.012-0.496,0.216-0.618,0.259c-0.225,0.211,0.149,0.614,0.404,0.432
				l0.202-0.432C493.539,623.177,493.519,623.121,493.427,623.129z M492.316,623.994c-0.477,0-1.149,0.352-1.555,1.109
				c-0.085,0.269,0.001,0.268,0.043,0.591c0.085,0.279,0.171,0.631,0.087,0.994c0.084,0.393,0.542,0.388,0.893,0.388
				c0.252,0,0.929-1.096,1.166-1.096c0.184-0.14,0.258-0.878,0.188-1.309C493.139,624.348,492.669,623.994,492.316,623.994z
				 M490.343,624.152c-0.048,0.012-0.11,0.032-0.201,0.073c-0.267,0.054-0.392,0.118-0.49,0.303
				c-0.127,0.211-0.007,0.457,0.287,0.315c0.197-0.098,0.275-0.318,0.332-0.446C490.451,624.187,490.486,624.115,490.343,624.152z
				 M495.544,624.743c-0.038,0.018-0.081,0.059-0.143,0.101c-0.085,0.055-0.349,0.26-0.405,0.318
				c-0.084,0.28,0.251,0.543,0.462,0.287c0.071-0.068,0.13-0.349,0.13-0.416C495.682,624.756,495.662,624.689,495.544,624.743z
				 M488.83,625.161c-0.197,0-1,0.354-1.21,0.678c-0.269,0.477-0.191,1.647,0.287,1.844c0.324,0.14,1.014-0.001,1.21-0.13
				c0.338-0.126,0.954-0.821,1.024-1.369c0.072-0.353-0.147-0.668-0.274-0.893c0,0-0.003,0-0.13,0
				C489.386,625.291,489.195,625.287,488.83,625.161z M494.421,625.781c-0.254,0-0.602,0.13-1.081,0.663
				c-0.268,0.295-0.391,0.757-0.476,1.109c-0.055,1.044,0.883,1.227,1.629,0.822c0.352-0.225,0.682-0.687,0.822-1.023
				c0.141-0.269,0.143-1.028,0.087-1.297c0-0.068-0.089-0.073-0.16-0.073C495.044,625.982,494.787,625.91,494.421,625.781z
				 M511.656,627.481c-1.235,0-1.715,0.45-1.715,1.816v0.547c0,1.33,0.48,1.816,1.715,1.816h0.879c1.233,0,1.715-0.487,1.715-1.816
				v-0.547c0-1.364-0.482-1.816-1.715-1.816H511.656z M615.465,627.481c-1.233,0-1.715,0.45-1.715,1.816v0.547
				c0,1.33,0.481,1.816,1.715,1.816h0.879c1.232,0,1.714-0.487,1.714-1.816v-0.547c0-1.364-0.483-1.816-1.714-1.816H615.465z
				 M506.05,627.51l-4.669,0.388c-0.325,0.032-0.49,0.256-0.49,0.548v1.167c0,0.26,0.121,0.496,0.446,0.562l1.629,0.346v3.343
				c-0.552-0.486-1.4-0.879-2.536-0.879c-2.853,0-4.769,2.639-4.769,8.833c0,6.522,1.426,8.689,4.021,8.689
				c1.556,0,2.73-0.618,3.833-2.694l0.23,2.017c0.032,0.355,0.287,0.521,0.679,0.49l3.89-0.359c0.325-0.033,0.49-0.272,0.49-0.562
				v-1.168c0-0.258-0.122-0.484-0.447-0.548l-1.629-0.359v-19.266C506.727,627.634,506.439,627.477,506.05,627.51z M491.15,627.611
				c-0.352,0.011-0.88,0.216-0.88,0.216s-0.805,0.155-1.341,0.548c0,0-0.905,0.062-1.383,0.274
				c-0.618,0.125-1.297,1.079-1.297,1.686c0,0.42,0.416,0.969,0.879,1.109c0.296,0.129,0.423,0,0.633,0c0,0,0.001-0.016,0,0.045
				c0.14,0.139,0.524,0.853,0.736,1.037c0.281,0.212,0.967,0.331,1.023,0.331c0,0,0.002,0,0.072,0c0,0.141,0.272,0.776,0.807,1.168
				c0.562,0.409,1.507-0.123,1.844-0.463c0.422-0.632,0.563-0.963,0.619-1.44c-0.197-0.678-0.553-1.184-0.202-2.407
				c0.141-0.732-0.352-0.94-0.634-1.066c-0.197-0.155-0.186-0.912-0.736-1.038C491.254,627.604,491.2,627.609,491.15,627.611z
				 M495.847,628.085c-0.037,0.008-0.09,0.06-0.143,0.16c-0.128,0.197-0.248,0.246-0.389,0.347
				c-0.268,0.251,0.078,0.602,0.332,0.403c0.197-0.212,0.302-0.393,0.302-0.706C495.948,628.174,495.911,628.075,495.847,628.085z
				 M537.046,628.388c-0.056,0.002-0.122,0.011-0.188,0.029l-1.555,0.361c-0.357,0.062-0.551,0.295-0.648,0.749l-0.807,3.66h-1.354
				c-0.325,0-0.561,0.191-0.561,0.548v1.686c0,0.357,0.238,0.562,0.561,0.562h1.354v10.374c0,3.015,1.267,4.148,3.214,4.148
				c1.393,0,2.56-0.484,3.372-1.295c0.13-0.131,0.392-0.386,0.49-0.548c0.162-0.261,0.166-0.519-0.029-0.778l-0.62-0.88
				c-0.193-0.295-0.518-0.324-0.777-0.129c-0.65,0.486-1.074,0.647-1.399,0.647c-0.324,0-0.49-0.168-0.49-1.371v-10.172h2.767
				c0.325,0,0.547-0.205,0.547-0.562v-1.686c0-0.357-0.223-0.548-0.547-0.548h-2.767v-4.222
				C537.608,628.68,537.436,628.373,537.046,628.388z M624.63,628.388c-0.056,0.002-0.124,0.011-0.188,0.029l-1.556,0.361
				c-0.357,0.062-0.552,0.295-0.648,0.749l-0.807,3.66h-1.354c-0.324,0-0.562,0.191-0.562,0.548v1.686
				c0,0.357,0.239,0.562,0.562,0.562h1.355v10.374c0,3.015,1.267,4.148,3.214,4.148c1.397,0,2.562-0.484,3.372-1.295
				c0.13-0.131,0.393-0.386,0.49-0.548c0.163-0.261,0.165-0.519-0.029-0.778l-0.618-0.88c-0.195-0.295-0.519-0.324-0.779-0.129
				c-0.647,0.486-1.074,0.647-1.398,0.647c-0.326,0-0.491-0.168-0.491-1.371v-10.172h2.509c0.324,0,0.547-0.205,0.547-0.562v-1.686
				c0-0.357-0.223-0.548-0.547-0.548h-2.509v-4.222C625.191,628.68,625.022,628.373,624.63,628.388z M494.492,629.052
				c-0.1,0.004-0.212,0.029-0.331,0.072c-0.409,0.14-0.409,0.685-0.606,0.937c-0.295,0.365-0.474,0.559-0.474,0.979
				c0,0.311,0.332,1.081,0.921,0.951c0.548-0.128,0.554-0.422,0.85-0.634c0.269-0.184,0.466-0.531,0.606-1.023
				C495.409,629.803,495.189,629.013,494.492,629.052z M522.362,632.827c-3.472,0-5.65,2.052-5.65,8.962
				c0,7.656,2.606,8.718,5.592,8.718c1.913,0,4.148-1.129,5.317-2.752c0.259-0.357,0.256-0.59,0.029-0.85l-0.619-0.75
				c-0.162-0.193-0.28-0.258-0.475-0.258c-0.682,0-1.592,1.629-3.732,1.629c-1.687,0-2.205-1.369-2.205-4.223v-0.257l6.283-0.62
				c0.454-0.031,0.692-0.218,0.692-0.577v-1.166C527.593,634.746,525.963,632.827,522.362,632.827z M573.1,632.827
				c-3.471,0-5.649,2.052-5.649,8.962c0,7.656,2.606,8.718,5.591,8.718c1.914,0,4.151-1.129,5.318-2.752
				c0.259-0.357,0.255-0.59,0.028-0.85l-0.619-0.75c-0.163-0.193-0.296-0.258-0.49-0.258c-0.682,0-1.576,1.629-3.719,1.629
				c-1.687,0-2.204-1.369-2.204-4.223v-0.257l6.284-0.62c0.453-0.031,0.678-0.218,0.678-0.577v-1.166
				C578.316,634.746,576.7,632.827,573.1,632.827z M584.282,632.827c-3.048,0-4.885,1.888-4.885,4.841
				c0,5.318,5.922,4.856,5.922,8.069c0,1.104-0.547,1.845-1.584,1.845c-0.908,0-1.624-0.193-2.696-0.777
				c-0.451-0.257-0.742-0.128-0.937,0.229l-0.618,1.068c-0.227,0.387-0.157,0.75,0.201,0.978c1.199,0.876,2.63,1.426,4.382,1.426
				c3.245,0,5.159-1.97,5.159-5.085c0-5.453-6.01-4.839-6.01-8.083c0-0.973,0.493-1.658,1.499-1.658
				c0.714,0,1.415,0.226,2.421,0.778c0.357,0.194,0.631,0.102,0.793-0.159l0.735-1.297c0.162-0.292,0.13-0.555-0.13-0.749
				C587.268,633.312,585.838,632.827,584.282,632.827z M606.156,632.827c-3.472,0-5.649,2.052-5.649,8.962
				c0,7.656,2.591,8.718,5.577,8.718c1.912,0,4.15-1.129,5.317-2.752c0.26-0.357,0.271-0.59,0.045-0.85l-0.619-0.75
				c-0.163-0.193-0.296-0.258-0.49-0.258c-0.682,0-1.592,1.629-3.732,1.629c-1.687,0-2.205-1.369-2.205-4.223v-0.257l6.298-0.62
				c0.452-0.031,0.677-0.218,0.677-0.577v-1.166C611.373,634.746,609.757,632.827,606.156,632.827z M651.576,632.827
				c-1.557,0-2.731,0.618-3.833,2.695l-0.229-2.017c-0.032-0.358-0.288-0.507-0.677-0.474l-3.891,0.346
				c-0.324,0.031-0.489,0.271-0.489,0.561v1.166c0,0.26,0.12,0.487,0.447,0.548l1.628,0.361v13.227c0,0.49,0.292,0.909,0.907,0.909
				h1.944c0.551,0,0.908-0.388,0.908-0.909v-10.633c1.266-2.239,1.784-2.725,2.336-2.725s0.85,0.745,0.85,3.762v10.115
				c0,0.421,0.288,0.595,0.677,0.562l4.669-0.388c0.326-0.031,0.491-0.272,0.491-0.562v-1.168c0-0.256-0.124-0.48-0.447-0.546
				l-1.629-0.361v-8.069C655.237,634.845,654.107,632.827,651.576,632.827z M547.147,632.856c-2.175,0-4.158,1.212-5.389,2.868
				c-0.259,0.357-0.22,0.739,0.072,0.965l0.965,0.807c0.357,0.326,0.628,0.197,0.951-0.16c0.844-0.971,1.646-1.656,2.781-1.656
				c1.233,0,1.816,0.789,1.816,2.507v1.584h-0.735c-2.725,0-5.937,1.292-5.937,5.866c0,3.312,1.397,4.869,3.732,4.869
				c1.913,0,2.849-1.424,3.53-2.594l0.187,1.917c0.032,0.357,0.302,0.521,0.692,0.49l3.89-0.359c0.325-0.033,0.49-0.272,0.49-0.561
				v-1.168c0-0.259-0.137-0.481-0.461-0.548l-1.613-0.359v-9.367C552.118,634.746,550.521,632.856,547.147,632.856z
				 M559.223,632.986c-2.855,0-4.683,2.626-4.683,7.751c0,5.841,1.209,8.114,3.934,8.114c1.202,0,2.594-0.581,3.372-2.103v0.965
				c0,2.889-0.129,3.474-2.464,3.474h-2.666c-0.39,0-0.613,0.287-0.548,0.677l0.159,1.139c0.065,0.419,0.269,0.525,0.562,0.589
				c1.265,0.26,2.392,0.318,3.17,0.318c3.244,0,5.446-0.845,5.446-6.197v-13.977c0-0.357-0.224-0.548-0.548-0.548h-1.657
				c-0.292,0-0.478,0.155-0.576,0.447l-0.331,0.908C561.614,633.538,560.422,632.986,559.223,632.986z M662.34,632.986
				c-2.854,0-4.668,2.626-4.668,7.751c0,5.841,1.193,8.114,3.919,8.114c1.2,0,2.593-0.581,3.37-2.103v0.965
				c0,2.889-0.128,3.474-2.463,3.474h-2.651c-0.389,0-0.629,0.287-0.562,0.677l0.173,1.139c0.064,0.419,0.256,0.525,0.548,0.589
				c1.266,0.26,2.406,0.318,3.184,0.318c3.244,0,5.446-0.845,5.446-6.197v-13.977c0-0.357-0.223-0.548-0.547-0.548h-1.657
				c-0.292,0-0.493,0.155-0.591,0.447l-0.317,0.908C664.746,633.538,663.542,632.986,662.34,632.986z M513.385,633.03l-4.683,0.388
				c-0.326,0.031-0.476,0.255-0.476,0.548v1.166c0,0.257,0.121,0.485,0.447,0.548l1.629,0.361v13.717
				c0,0.421,0.287,0.595,0.677,0.562l4.669-0.388c0.324-0.035,0.49-0.272,0.49-0.562v-1.168c0-0.256-0.136-0.48-0.461-0.546
				l-1.615-0.361v-13.719C514.061,633.154,513.774,632.997,513.385,633.03z M617.18,633.03l-4.669,0.388
				c-0.325,0.031-0.49,0.255-0.49,0.548v1.166c0,0.257,0.136,0.485,0.461,0.548l1.615,0.361v13.717c0,0.421,0.303,0.595,0.692,0.562
				l4.668-0.388c0.326-0.035,0.491-0.272,0.491-0.562v-1.168c0-0.256-0.137-0.48-0.463-0.546l-1.628-0.361v-13.719
				C617.857,633.154,617.569,632.997,617.18,633.03z M633.333,633.03l-4.121,0.388c-0.324,0.033-0.476,0.255-0.476,0.548v1.297
				c0,0.259,0.121,0.48,0.447,0.548l1.067,0.23v8.083c0,4.379,1.143,6.382,3.674,6.382c1.556,0,2.715-0.617,3.818-2.694l0.23,2.017
				c0.032,0.357,0.303,0.521,0.692,0.49l3.891-0.359c0.325-0.033,0.475-0.272,0.475-0.561v-1.168c0-0.259-0.121-0.481-0.447-0.548
				l-1.628-0.359v-13.748c0-0.422-0.287-0.579-0.678-0.548l-4.121,0.39c-0.324,0.032-0.49,0.254-0.49,0.546v1.297
				c0,0.26,0.137,0.481,0.462,0.548l1.067,0.23v8.689c-1.266,2.241-1.784,2.737-2.335,2.737c-0.552,0-0.836-0.76-0.836-3.775
				v-10.117C634.025,633.156,633.722,632.997,633.333,633.03z M590.652,633.187c-0.357,0-0.562,0.222-0.562,0.548v1.715
				c0,0.357,0.239,0.56,0.562,0.56h4.957l-5.217,10.318c-0.258,0.423-0.388,0.772-0.388,1.224v2.046
				c0,0.359,0.223,0.548,0.548,0.548h8.502c0.356,0,0.547-0.222,0.547-0.548v-1.714c0-0.357-0.224-0.562-0.547-0.562h-5.058
				l5.188-10.274c0.227-0.388,0.389-0.907,0.389-1.556v-1.758c0-0.357-0.224-0.548-0.547-0.548h-8.373V633.187z M522.261,635.392
				c1.102,0,1.527,1.199,1.527,4.64l-3.17,0.259C520.618,636.172,521.385,635.392,522.261,635.392z M572.999,635.392
				c1.103,0,1.526,1.199,1.526,4.64l-3.17,0.259C571.356,636.172,572.123,635.392,572.999,635.392z M606.056,635.392
				c1.102,0,1.527,1.199,1.527,4.64l-3.185,0.259C604.398,636.172,605.179,635.392,606.056,635.392z M501.208,635.839
				c0.617,0,1.271,0.327,1.758,0.879v8.012c-1.265,2.239-1.783,2.725-2.335,2.725c-0.681-0.002-1.081-1.588-1.081-6.097
				C499.551,636.946,500.267,635.839,501.208,635.839z M560.001,635.839c0.616,0,1.223,0.368,1.744,1.181v6.025
				c-1.234,2.237-1.689,2.723-2.307,2.723c-0.616,0-1.038-1.488-1.038-5.086C558.401,636.884,559.06,635.839,560.001,635.839z
				 M663.119,635.839c0.616,0,1.239,0.368,1.758,1.181v6.025c-1.233,2.237-1.687,2.723-2.306,2.723
				c-0.616,0-1.038-1.488-1.038-5.086C661.534,636.884,662.177,635.839,663.119,635.839z M547.608,642.439h0.735v2.491
				c-1.135,2.11-1.718,2.523-2.075,2.523c-0.487-0.002-0.777-0.547-0.777-2.235C545.49,643.145,546.375,642.439,547.608,642.439z"/>
		</g>
	</g>
</g>
<g id="Ebene_2" display="none">
</g>
</svg>
