<?xml version="1.0" encoding="utf-8"?>
<!-- Generator: Adobe Illustrator 16.0.0, SVG Export Plug-In . SVG Version: 6.00 Build 0)  -->
<!DOCTYPE svg PUBLIC "-//W3C//DTD SVG 1.1//EN" "http://www.w3.org/Graphics/SVG/1.1/DTD/svg11.dtd">
<svg version="1.1" xmlns="http://www.w3.org/2000/svg" xmlns:xlink="http://www.w3.org/1999/xlink" x="0px" y="0px" width="77px"
	 height="44px" viewBox="14.181 -67.077 77 44" enable-background="new 14.181 -67.077 77 44" xml:space="preserve">
<g id="svg2385" xmlns:svg="http://www.w3.org/2000/svg" display="none">
</g>
<g id="Ebene_2">
	<g>
		<path id="path2482" fill="#D6D2E7" d="M64.861-40.384h-4.336v-11.989h4.336c3.407,0,4.633,1.458,4.633,5.995
			C69.495-41.842,68.269-40.384,64.861-40.384 M81.141-52.373h6.884v-3.265h-8.292c-4.46,0-6.291,2.496-6.291,6.409l-0.003,0.382
			c-0.745-4.606-3.482-6.791-8.496-6.791h-8.405c-3.38-6.781-10.381-11.438-18.472-11.438c-11.39,0-20.63,9.237-20.63,20.633
			c0,11.393,9.24,20.623,20.63,20.623c8.042,0,15-4.595,18.402-11.298h8.573c2.052,0,3.893-0.122,5.777-1.623
			c1.355-1.078,2.208-2.594,2.6-4.582v6.182h3.93l0.005-7.275h9.276v-3.239h-9.282l0.053-1.31
			C77.402-51.09,78.041-52.373,81.141-52.373"/>
		<path id="path2486" fill="#FFFFFF" d="M47.202-47.969h2.561c2.039,0,3.239-0.409,3.239-2.135c0-1.773-1.2-2.27-3.288-2.27h-8.688
			v-3.265h10.106c5.128,0,5.854,3.589,5.854,5.59c0,2.13-0.869,5.509-5.861,5.509h-2.479c-3.103,0-3.771,1.121-3.771,3.244v0.992
			h11.602v3.162H40.911v-4.595C40.911-45.645,42.749-47.969,47.202-47.969"/>
	</g>
</g>
</svg>
